<svg class="diagram-root" style="background: #f5f6f6" xmlns="http://www.w3.org/2000/svg" xmlns:xlink="http://www.w3.org/1999/xlink"><style>.diagram-root { font-family: "Helvetica Neue", sans-serif; font-size: 12px; } .t { overflow: visible; } .t-bg { y: 40; fill: #fff;   } .th { fill: #005aa0;   } .tht { fill: #fff; font-size: 14px;  } .tf { fill: #323c46; overflow: visible; } .tf.pk { fill: #005aa0; font-weight: bold; } .tf.fk { font-weight: bold; } .ty { fill: #adb1b5; font-weight: normal; text-anchor: end; } .r { fill: transparent; stroke: #c3c3c3; stroke-width: 1; } .l { stroke: 1; } .i { fill: #c2c7ce; stroke: #c2c7ce; } .i.ix { fill: #afb3b6; stroke: #000; } .fa { fill: transparent; overflow: visible; } .fa .bg.hover { fill: #f7f7f7; } .c { cy: 12; r: 4; stroke: #d2d2dc; fill: #d2d2dc; } .hr { fill: transparent; stroke: #323c46; stroke-opacity: 0.035; stroke-width: 13; } .dc { stroke: #fa5a3c; fill: #fa5a3c; } .x { stroke: white; stroke-width: 1; } .hl .th { fill: #1b9bff; } .hl .tht {  } .fhl .bg { fill: #e7f4ff; } .fhls .bg {  } .r.hl { stroke: #1b9bff; } .dim { opacity: 0.25; }</style><g class="drawing-wrapper" transform="translate(-9, 18) scale(1,1)"><g class="rs"><path d="M 228 106 m -1, 0 a 1,1 0 1,0 2,0 a 1,1 0 1,0 -2,0 M 228 106 m -0.5, 0 a 0.5,0.5 0 1,0 1,0 a 0.5,0.5 0 1,0 -1,0  M228 106 L228 106 216 106 M 228 112 m -1, 0 a 1,1 0 1,0 2,0 a 1,1 0 1,0 -2,0 M 228 112 m -0.5, 0 a 0.5,0.5 0 1,0 1,0 a 0.5,0.5 0 1,0 -1,0  M228 112 L228 112 221 106 228 100 M 228 100 m -1, 0 a 1,1 0 1,0 2,0 a 1,1 0 1,0 -2,0 M 228 100 m -0.5, 0 a 0.5,0.5 0 1,0 1,0 a 0.5,0.5 0 1,0 -1,0  M216 106 C -149.20000000000005 106, -31 69, 19 69 M 31 69 m -1, 0 a 1,1 0 1,0 2,0 a 1,1 0 1,0 -2,0 M 31 69 m -0.5, 0 a 0.5,0.5 0 1,0 1,0 a 0.5,0.5 0 1,0 -1,0  M31 69 L31 69 19 69 M25 75 L25 75 25 63" id="h289059047" class="r"></path><path d="M 374.68 131 m -1, 0 a 1,1 0 1,0 2,0 a 1,1 0 1,0 -2,0 M 374.68 131 m -0.5, 0 a 0.5,0.5 0 1,0 1,0 a 0.5,0.5 0 1,0 -1,0  M374.68 131 L374.68 131 386.68 131 M 374.68 137 m -1, 0 a 1,1 0 1,0 2,0 a 1,1 0 1,0 -2,0 M 374.68 137 m -0.5, 0 a 0.5,0.5 0 1,0 1,0 a 0.5,0.5 0 1,0 -1,0  M374.68 137 L374.68 137 381.68 131 374.68 125 M 374.68 125 m -1, 0 a 1,1 0 1,0 2,0 a 1,1 0 1,0 -2,0 M 374.68 125 m -0.5, 0 a 0.5,0.5 0 1,0 1,0 a 0.5,0.5 0 1,0 -1,0  M386.68 131 Q 402.01 131, 417.34 104.5 T 448 78 M 460 78 m -1, 0 a 1,1 0 1,0 2,0 a 1,1 0 1,0 -2,0 M 460 78 m -0.5, 0 a 0.5,0.5 0 1,0 1,0 a 0.5,0.5 0 1,0 -1,0  M460 78 L460 78 448 78 M454 84 L454 84 454 72" id="h898844318" class="r"></path><path d="M 333 336 m -1, 0 a 1,1 0 1,0 2,0 a 1,1 0 1,0 -2,0 M 333 336 m -0.5, 0 a 0.5,0.5 0 1,0 1,0 a 0.5,0.5 0 1,0 -1,0  M333 336 L333 336 321 336 M 333 342 m -1, 0 a 1,1 0 1,0 2,0 a 1,1 0 1,0 -2,0 M 333 342 m -0.5, 0 a 0.5,0.5 0 1,0 1,0 a 0.5,0.5 0 1,0 -1,0  M333 342 L333 342 326 336 333 330 M 333 330 m -1, 0 a 1,1 0 1,0 2,0 a 1,1 0 1,0 -2,0 M 333 330 m -0.5, 0 a 0.5,0.5 0 1,0 1,0 a 0.5,0.5 0 1,0 -1,0  M321 336 C 103 336, 166 81, 216 81 M 228 81 m -1, 0 a 1,1 0 1,0 2,0 a 1,1 0 1,0 -2,0 M 228 81 m -0.5, 0 a 0.5,0.5 0 1,0 1,0 a 0.5,0.5 0 1,0 -1,0  M228 81 L228 81 216 81 M222 87 L222 87 222 75" id="h2896823937" class="r"></path><path d="M 333 361 m -1, 0 a 1,1 0 1,0 2,0 a 1,1 0 1,0 -2,0 M 333 361 m -0.5, 0 a 0.5,0.5 0 1,0 1,0 a 0.5,0.5 0 1,0 -1,0  M333 361 L333 361 321 361 M 333 367 m -1, 0 a 1,1 0 1,0 2,0 a 1,1 0 1,0 -2,0 M 333 367 m -0.5, 0 a 0.5,0.5 0 1,0 1,0 a 0.5,0.5 0 1,0 -1,0  M333 367 L333 367 326 361 333 355 M 333 355 m -1, 0 a 1,1 0 1,0 2,0 a 1,1 0 1,0 -2,0 M 333 355 m -0.5, 0 a 0.5,0.5 0 1,0 1,0 a 0.5,0.5 0 1,0 -1,0  M321 361 Q 287.85 361, 254.69 354 T 188.37 347 M 176.37 347 m -1, 0 a 1,1 0 1,0 2,0 a 1,1 0 1,0 -2,0 M 176.37 347 m -0.5, 0 a 0.5,0.5 0 1,0 1,0 a 0.5,0.5 0 1,0 -1,0  M176.37 347 L176.37 347 188.37 347 M182.37 353 L182.37 353 182.37 341" id="h154150420" class="r"></path></g><g class="hrs"></g><g class="ts"><svg width="114.03" height="125" x="31" y="12" id="h620315142" class="t"><rect height="40" width="114.03" class="th"></rect><text x="13" y="25" class="tht">Doctor</text><rect height="85" width="114.03" class="t-bg"></rect><text x="13" y="61" class="tf pk">id<tspan x="101.03" class="ty">serial</tspan></text><path d="M7,14A2,2 0 0,1 5,12A2,2 0 0,1 7,10A2,2 0 0,1 9,12A2,2 0 0,1 7,14M12.65,10C11.83,7.67 9.61,6 7, 6A6, 6 0 0, 0 1, 12A6, 6 0 0, 0 7, 18C9.61, 18 11.83, 16.33 12.65, 14H17V18H21V14H23V10H12.65Z" class="i pk" transform="translate(52.35421875, 48) scale(0.65)"></path><text x="13" y="86" class="tf">Name<tspan x="101.03" class="ty">text</tspan></text><text x="13" y="111" class="tf">Specialty<tspan x="101.03" class="ty">text</tspan></text></svg><svg width="118.04" height="150" x="460" y="21" id="h959375892" class="t"><rect height="40" width="118.04" class="th"></rect><text x="13" y="25" class="tht">Patient</text><rect height="110" width="118.04" class="t-bg"></rect><text x="13" y="61" class="tf pk">id<tspan x="105.04" class="ty">serial</tspan></text><path d="M7,14A2,2 0 0,1 5,12A2,2 0 0,1 7,10A2,2 0 0,1 9,12A2,2 0 0,1 7,14M12.65,10C11.83,7.67 9.61,6 7, 6A6, 6 0 0, 0 1, 12A6, 6 0 0, 0 7, 18C9.61, 18 11.83, 16.33 12.65, 14H17V18H21V14H23V10H12.65Z" class="i pk" transform="translate(56.364218750000006, 48) scale(0.65)"></path><text x="13" y="86" class="tf">Name<tspan x="105.04" class="ty">text</tspan></text><text x="13" y="111" class="tf">Insurance<tspan x="105.04" class="ty">text</tspan></text><text x="13" y="136" class="tf">DOB<tspan x="105.04" class="ty">date</tspan></text></svg><svg width="146.68" height="150" x="228" y="24" id="h3280351983" class="t"><rect height="40" width="146.68" class="th"></rect><text x="13" y="25" class="tht">Visits</text><rect height="110" width="146.68" class="t-bg"></rect><text x="13" y="61" class="tf pk">id<tspan x="133.68" class="ty">serial</tspan></text><path d="M7,14A2,2 0 0,1 5,12A2,2 0 0,1 7,10A2,2 0 0,1 9,12A2,2 0 0,1 7,14M12.65,10C11.83,7.67 9.61,6 7, 6A6, 6 0 0, 0 1, 12A6, 6 0 0, 0 7, 18C9.61, 18 11.83, 16.33 12.65, 14H17V18H21V14H23V10H12.65Z" class="i pk" transform="translate(85.00421875, 48) scale(0.65)"></path><text x="13" y="86" class="tf fk">DoctorID<tspan x="133.68" class="ty">INTEGER</tspan></text><text x="13" y="111" class="tf fk">PatientID<tspan x="133.68" class="ty">Integer</tspan></text><text x="13" y="136" class="tf">Date<tspan x="133.68" class="ty">date</tspan></text></svg><svg width="154.69" height="150" x="333" y="254" id="h3047656030" class="t"><rect height="40" width="154.69" class="th"></rect><text x="13" y="25" class="tht">Diagnoses</text><rect height="110" width="154.69" class="t-bg"></rect><text x="13" y="61" class="tf pk">id<tspan x="141.69" class="ty">serial</tspan></text><path d="M7,14A2,2 0 0,1 5,12A2,2 0 0,1 7,10A2,2 0 0,1 9,12A2,2 0 0,1 7,14M12.65,10C11.83,7.67 9.61,6 7, 6A6, 6 0 0, 0 1, 12A6, 6 0 0, 0 7, 18C9.61, 18 11.83, 16.33 12.65, 14H17V18H21V14H23V10H12.65Z" class="i pk" transform="translate(93.01421875, 48) scale(0.65)"></path><text x="13" y="86" class="tf fk">VisitID<tspan x="141.69" class="ty">INTEGER</tspan></text><text x="13" y="111" class="tf fk">DiseaseID<tspan x="141.69" class="ty">INTEGER</tspan></text><text x="13" y="136" class="tf">Notes<tspan x="141.69" class="ty">text</tspan></text></svg><svg width="125.37" height="125" x="51" y="290" id="h1794948770" class="t"><rect height="40" width="125.37" class="th"></rect><text x="13" y="25" class="tht">Diseases</text><rect height="85" width="125.37" class="t-bg"></rect><text x="13" y="61" class="tf pk">id<tspan x="112.37" class="ty">serial</tspan></text><path d="M7,14A2,2 0 0,1 5,12A2,2 0 0,1 7,10A2,2 0 0,1 9,12A2,2 0 0,1 7,14M12.65,10C11.83,7.67 9.61,6 7, 6A6, 6 0 0, 0 1, 12A6, 6 0 0, 0 7, 18C9.61, 18 11.83, 16.33 12.65, 14H17V18H21V14H23V10H12.65Z" class="i pk" transform="translate(63.694218750000005, 48) scale(0.65)"></path><text x="13" y="86" class="tf">Name<tspan x="112.37" class="ty">text</tspan></text><text x="13" y="111" class="tf">Description<tspan x="112.37" class="ty">text</tspan></text></svg></g></g><text class="qdbd-link" x="10" y="20">www.quickdatabasediagrams.com</text></svg>