<svg class="diagram-root" style="background: #f5f6f6" xmlns="http://www.w3.org/2000/svg" xmlns:xlink="http://www.w3.org/1999/xlink"><style>.diagram-root { font-family: "Helvetica Neue", sans-serif; font-size: 12px; } .t { overflow: visible; } .t-bg { y: 40; fill: #fff;   } .th { fill: #005aa0;   } .tht { fill: #fff; font-size: 14px;  } .tf { fill: #323c46; overflow: visible; } .tf.pk { fill: #005aa0; font-weight: bold; } .tf.fk { font-weight: bold; } .ty { fill: #adb1b5; font-weight: normal; text-anchor: end; } .r { fill: transparent; stroke: #c3c3c3; stroke-width: 1; } .l { stroke: 1; } .i { fill: #c2c7ce; stroke: #c2c7ce; } .i.ix { fill: #afb3b6; stroke: #000; } .fa { fill: transparent; overflow: visible; } .fa .bg.hover { fill: #f7f7f7; } .c { cy: 12; r: 4; stroke: #d2d2dc; fill: #d2d2dc; } .hr { fill: transparent; stroke: #323c46; stroke-opacity: 0.035; stroke-width: 13; } .dc { stroke: #fa5a3c; fill: #fa5a3c; } .x { stroke: white; stroke-width: 1; } .hl .th { fill: #1b9bff; } .hl .tht {  } .fhl .bg { fill: #e7f4ff; } .fhls .bg {  } .r.hl { stroke: #1b9bff; } .dim { opacity: 0.25; }</style><g class="drawing-wrapper" transform="translate(62, 13) scale(1,1)"><g class="rs"><path d="M 255 156 m -1, 0 a 1,1 0 1,0 2,0 a 1,1 0 1,0 -2,0 M 255 156 m -0.5, 0 a 0.5,0.5 0 1,0 1,0 a 0.5,0.5 0 1,0 -1,0  M255 156 L255 156 243 156 M 255 162 m -1, 0 a 1,1 0 1,0 2,0 a 1,1 0 1,0 -2,0 M 255 162 m -0.5, 0 a 0.5,0.5 0 1,0 1,0 a 0.5,0.5 0 1,0 -1,0  M255 162 L255 162 248 156 255 150 M 255 150 m -1, 0 a 1,1 0 1,0 2,0 a 1,1 0 1,0 -2,0 M 255 150 m -0.5, 0 a 0.5,0.5 0 1,0 1,0 a 0.5,0.5 0 1,0 -1,0  M243 156 Q 226.27 156, 209.54 115 T 176.07 74 M 164.07 74 m -1, 0 a 1,1 0 1,0 2,0 a 1,1 0 1,0 -2,0 M 164.07 74 m -0.5, 0 a 0.5,0.5 0 1,0 1,0 a 0.5,0.5 0 1,0 -1,0  M164.07 74 L164.07 74 176.07 74 M170.07 80 L170.07 80 170.07 68" id="h4123789742" class="r"></path><path d="M 416.38 206 m -1, 0 a 1,1 0 1,0 2,0 a 1,1 0 1,0 -2,0 M 416.38 206 m -0.5, 0 a 0.5,0.5 0 1,0 1,0 a 0.5,0.5 0 1,0 -1,0  M416.38 206 L416.38 206 428.38 206 M 416.38 212 m -1, 0 a 1,1 0 1,0 2,0 a 1,1 0 1,0 -2,0 M 416.38 212 m -0.5, 0 a 0.5,0.5 0 1,0 1,0 a 0.5,0.5 0 1,0 -1,0  M416.38 212 L416.38 212 423.38 206 416.38 200 M 416.38 200 m -1, 0 a 1,1 0 1,0 2,0 a 1,1 0 1,0 -2,0 M 416.38 200 m -0.5, 0 a 0.5,0.5 0 1,0 1,0 a 0.5,0.5 0 1,0 -1,0  M428.38 206 Q 445.29 206, 462.19 143.5 T 496 81 M 508 81 m -1, 0 a 1,1 0 1,0 2,0 a 1,1 0 1,0 -2,0 M 508 81 m -0.5, 0 a 0.5,0.5 0 1,0 1,0 a 0.5,0.5 0 1,0 -1,0  M508 81 L508 81 496 81 M502 87 L502 87 502 75" id="h2544650471" class="r"></path><path d="M 255 231 m -1, 0 a 1,1 0 1,0 2,0 a 1,1 0 1,0 -2,0 M 255 231 m -0.5, 0 a 0.5,0.5 0 1,0 1,0 a 0.5,0.5 0 1,0 -1,0  M255 231 L255 231 243 231 M 255 237 m -1, 0 a 1,1 0 1,0 2,0 a 1,1 0 1,0 -2,0 M 255 237 m -0.5, 0 a 0.5,0.5 0 1,0 1,0 a 0.5,0.5 0 1,0 -1,0  M255 237 L255 237 248 231 255 225 M 255 225 m -1, 0 a 1,1 0 1,0 2,0 a 1,1 0 1,0 -2,0 M 255 225 m -0.5, 0 a 0.5,0.5 0 1,0 1,0 a 0.5,0.5 0 1,0 -1,0  M243 231 Q 226.01 231, 209.01 311.5 T 175.02 392 M 163.02 392 m -1, 0 a 1,1 0 1,0 2,0 a 1,1 0 1,0 -2,0 M 163.02 392 m -0.5, 0 a 0.5,0.5 0 1,0 1,0 a 0.5,0.5 0 1,0 -1,0  M163.02 392 L163.02 392 175.02 392 M169.02 398 L169.02 398 169.02 386" id="h2965294969" class="r"></path></g><g class="hrs"></g><g class="ts"><svg width="204.07" height="125" x="-40" y="17" id="h3889921393" class="t"><rect height="40" width="204.07" class="th"></rect><text x="13" y="25" class="tht">Users</text><rect height="85" width="204.07" class="t-bg"></rect><text x="13" y="61" class="tf pk">id<tspan x="191.07" class="ty">serial</tspan></text><path d="M7,14A2,2 0 0,1 5,12A2,2 0 0,1 7,10A2,2 0 0,1 9,12A2,2 0 0,1 7,14M12.65,10C11.83,7.67 9.61,6 7, 6A6, 6 0 0, 0 1, 12A6, 6 0 0, 0 7, 18C9.61, 18 11.83, 16.33 12.65, 14H17V18H21V14H23V10H12.65Z" class="i pk" transform="translate(142.39421875, 48) scale(0.65)"></path><text x="13" y="86" class="tf">name<tspan x="191.07" class="ty">text</tspan></text><text x="13" y="111" class="tf">preferred_region_id<tspan x="191.07" class="ty">INTEGER</tspan></text></svg><svg width="104.02" height="100" x="508" y="24" id="h3849288478" class="t"><rect height="40" width="104.02" class="th"></rect><text x="13" y="25" class="tht">Region</text><rect height="60" width="104.02" class="t-bg"></rect><text x="13" y="61" class="tf pk">id<tspan x="91.02" class="ty">serial</tspan></text><path d="M7,14A2,2 0 0,1 5,12A2,2 0 0,1 7,10A2,2 0 0,1 9,12A2,2 0 0,1 7,14M12.65,10C11.83,7.67 9.61,6 7, 6A6, 6 0 0, 0 1, 12A6, 6 0 0, 0 7, 18C9.61, 18 11.83, 16.33 12.65, 14H17V18H21V14H23V10H12.65Z" class="i pk" transform="translate(42.344218749999996, 48) scale(0.65)"></path><text x="13" y="86" class="tf">name<tspan x="91.02" class="ty">text</tspan></text></svg><svg width="161.38" height="225" x="255" y="24" id="h1611266215" class="t"><rect height="40" width="161.38" class="th"></rect><text x="13" y="25" class="tht">Posts</text><rect height="185" width="161.38" class="t-bg"></rect><text x="13" y="61" class="tf pk">id<tspan x="148.38" class="ty">serial</tspan></text><path d="M7,14A2,2 0 0,1 5,12A2,2 0 0,1 7,10A2,2 0 0,1 9,12A2,2 0 0,1 7,14M12.65,10C11.83,7.67 9.61,6 7, 6A6, 6 0 0, 0 1, 12A6, 6 0 0, 0 7, 18C9.61, 18 11.83, 16.33 12.65, 14H17V18H21V14H23V10H12.65Z" class="i pk" transform="translate(99.70421875, 48) scale(0.65)"></path><text x="13" y="86" class="tf">title<tspan x="148.38" class="ty">text</tspan></text><text x="13" y="111" class="tf">text<tspan x="148.38" class="ty">text</tspan></text><text x="13" y="136" class="tf fk">user_id<tspan x="148.38" class="ty">INTEGER</tspan></text><text x="13" y="161" class="tf">location<tspan x="148.38" class="ty">text</tspan></text><text x="13" y="186" class="tf fk">region_id<tspan x="148.38" class="ty">INTEGER</tspan></text><text x="13" y="211" class="tf fk">category_id<tspan x="148.38" class="ty">INTEGER</tspan></text></svg><svg width="104.02" height="100" x="59" y="335" id="h1903237708" class="t"><rect height="40" width="104.02" class="th"></rect><text x="13" y="25" class="tht">Category</text><rect height="60" width="104.02" class="t-bg"></rect><text x="13" y="61" class="tf pk">id<tspan x="91.02" class="ty">serial</tspan></text><path d="M7,14A2,2 0 0,1 5,12A2,2 0 0,1 7,10A2,2 0 0,1 9,12A2,2 0 0,1 7,14M12.65,10C11.83,7.67 9.61,6 7, 6A6, 6 0 0, 0 1, 12A6, 6 0 0, 0 7, 18C9.61, 18 11.83, 16.33 12.65, 14H17V18H21V14H23V10H12.65Z" class="i pk" transform="translate(42.344218749999996, 48) scale(0.65)"></path><text x="13" y="86" class="tf">name<tspan x="91.02" class="ty">text</tspan></text></svg></g></g><text class="qdbd-link" x="10" y="20">www.quickdatabasediagrams.com</text></svg>