<svg class="diagram-root" style="background: #f5f6f6" xmlns="http://www.w3.org/2000/svg" xmlns:xlink="http://www.w3.org/1999/xlink"><style>.diagram-root { font-family: "Helvetica Neue", sans-serif; font-size: 12px; } .t { overflow: visible; } .t-bg { y: 40; fill: #fff;   } .th { fill: #005aa0;   } .tht { fill: #fff; font-size: 14px;  } .tf { fill: #323c46; overflow: visible; } .tf.pk { fill: #005aa0; font-weight: bold; } .tf.fk { font-weight: bold; } .ty { fill: #adb1b5; font-weight: normal; text-anchor: end; } .r { fill: transparent; stroke: #c3c3c3; stroke-width: 1; } .l { stroke: 1; } .i { fill: #c2c7ce; stroke: #c2c7ce; } .i.ix { fill: #afb3b6; stroke: #000; } .fa { fill: transparent; overflow: visible; } .fa .bg.hover { fill: #f7f7f7; } .c { cy: 12; r: 4; stroke: #d2d2dc; fill: #d2d2dc; } .hr { fill: transparent; stroke: #323c46; stroke-opacity: 0.035; stroke-width: 13; } .dc { stroke: #fa5a3c; fill: #fa5a3c; } .x { stroke: white; stroke-width: 1; } .hl .th { fill: #1b9bff; } .hl .tht {  } .fhl .bg { fill: #e7f4ff; } .fhls .bg {  } .r.hl { stroke: #1b9bff; } .dim { opacity: 0.25; }</style><g class="drawing-wrapper" transform="translate(52, 18) scale(1,1)"><g class="rs"><path d="M 380.82 107.56 m -1, 0 a 1,1 0 1,0 2,0 a 1,1 0 1,0 -2,0 M 380.82 107.56 m -0.5, 0 a 0.5,0.5 0 1,0 1,0 a 0.5,0.5 0 1,0 -1,0  M380.82 107.56 L380.82 107.56 392.82 107.56 M 380.82 113.56 m -1, 0 a 1,1 0 1,0 2,0 a 1,1 0 1,0 -2,0 M 380.82 113.56 m -0.5, 0 a 0.5,0.5 0 1,0 1,0 a 0.5,0.5 0 1,0 -1,0  M380.82 113.56 L380.82 113.56 387.82 107.56 380.82 101.56 M 380.82 101.56 m -1, 0 a 1,1 0 1,0 2,0 a 1,1 0 1,0 -2,0 M 380.82 101.56 m -0.5, 0 a 0.5,0.5 0 1,0 1,0 a 0.5,0.5 0 1,0 -1,0  M392.82 107.56 C 780.756 107.56, 654.03 90, 604.03 90 M 592.03 90 m -1, 0 a 1,1 0 1,0 2,0 a 1,1 0 1,0 -2,0 M 592.03 90 m -0.5, 0 a 0.5,0.5 0 1,0 1,0 a 0.5,0.5 0 1,0 -1,0  M592.03 90 L592.03 90 604.03 90 M598.03 96 L598.03 96 598.03 84" id="h1914947893" class="r"></path><path d="M 232.78 132.56 m -1, 0 a 1,1 0 1,0 2,0 a 1,1 0 1,0 -2,0 M 232.78 132.56 m -0.5, 0 a 0.5,0.5 0 1,0 1,0 a 0.5,0.5 0 1,0 -1,0  M232.78 132.56 L232.78 132.56 220.78 132.56 M 232.78 138.56 m -1, 0 a 1,1 0 1,0 2,0 a 1,1 0 1,0 -2,0 M 232.78 138.56 m -0.5, 0 a 0.5,0.5 0 1,0 1,0 a 0.5,0.5 0 1,0 -1,0  M232.78 138.56 L232.78 138.56 225.78 132.56 232.78 126.56 M 232.78 126.56 m -1, 0 a 1,1 0 1,0 2,0 a 1,1 0 1,0 -2,0 M 232.78 126.56 m -0.5, 0 a 0.5,0.5 0 1,0 1,0 a 0.5,0.5 0 1,0 -1,0  M220.78 132.56 Q 199.6 132.56, 178.42 209.78 T 136.05 287 M 124.05 287 m -1, 0 a 1,1 0 1,0 2,0 a 1,1 0 1,0 -2,0 M 124.05 287 m -0.5, 0 a 0.5,0.5 0 1,0 1,0 a 0.5,0.5 0 1,0 -1,0  M124.05 287 L124.05 287 136.05 287 M130.05 293 L130.05 293 130.05 281" id="h2105621532" class="r"></path><path d="M 232.78 157.56 m -1, 0 a 1,1 0 1,0 2,0 a 1,1 0 1,0 -2,0 M 232.78 157.56 m -0.5, 0 a 0.5,0.5 0 1,0 1,0 a 0.5,0.5 0 1,0 -1,0  M232.78 157.56 L232.78 157.56 220.78 157.56 M 232.78 163.56 m -1, 0 a 1,1 0 1,0 2,0 a 1,1 0 1,0 -2,0 M 232.78 163.56 m -0.5, 0 a 0.5,0.5 0 1,0 1,0 a 0.5,0.5 0 1,0 -1,0  M232.78 163.56 L232.78 163.56 225.78 157.56 232.78 151.56 M 232.78 151.56 m -1, 0 a 1,1 0 1,0 2,0 a 1,1 0 1,0 -2,0 M 232.78 151.56 m -0.5, 0 a 0.5,0.5 0 1,0 1,0 a 0.5,0.5 0 1,0 -1,0  M220.78 157.56 C -153.66800000000003 157.56, -32 87, 18 87 M 30 87 m -1, 0 a 1,1 0 1,0 2,0 a 1,1 0 1,0 -2,0 M 30 87 m -0.5, 0 a 0.5,0.5 0 1,0 1,0 a 0.5,0.5 0 1,0 -1,0  M30 87 L30 87 18 87 M24 93 L24 93 24 81" id="h103345308" class="r"></path><path d="M 521.04 292 m -1, 0 a 1,1 0 1,0 2,0 a 1,1 0 1,0 -2,0 M 521.04 292 m -0.5, 0 a 0.5,0.5 0 1,0 1,0 a 0.5,0.5 0 1,0 -1,0  M521.04 292 L521.04 292 533.04 292 M 521.04 298 m -1, 0 a 1,1 0 1,0 2,0 a 1,1 0 1,0 -2,0 M 521.04 298 m -0.5, 0 a 0.5,0.5 0 1,0 1,0 a 0.5,0.5 0 1,0 -1,0  M521.04 298 L521.04 298 528.04 292 521.04 286 M 521.04 286 m -1, 0 a 1,1 0 1,0 2,0 a 1,1 0 1,0 -2,0 M 521.04 286 m -0.5, 0 a 0.5,0.5 0 1,0 1,0 a 0.5,0.5 0 1,0 -1,0  M533.04 292 C 696.624 292, 654.03 90, 604.03 90 M 592.03 90 m -1, 0 a 1,1 0 1,0 2,0 a 1,1 0 1,0 -2,0 M 592.03 90 m -0.5, 0 a 0.5,0.5 0 1,0 1,0 a 0.5,0.5 0 1,0 -1,0  M592.03 90 L592.03 90 604.03 90 M598.03 96 L598.03 96 598.03 84" id="h2561147591" class="r"></path><path d="M 373 317 m -1, 0 a 1,1 0 1,0 2,0 a 1,1 0 1,0 -2,0 M 373 317 m -0.5, 0 a 0.5,0.5 0 1,0 1,0 a 0.5,0.5 0 1,0 -1,0  M373 317 L373 317 361 317 M 373 323 m -1, 0 a 1,1 0 1,0 2,0 a 1,1 0 1,0 -2,0 M 373 323 m -0.5, 0 a 0.5,0.5 0 1,0 1,0 a 0.5,0.5 0 1,0 -1,0  M373 323 L373 323 366 317 373 311 M 373 311 m -1, 0 a 1,1 0 1,0 2,0 a 1,1 0 1,0 -2,0 M 373 311 m -0.5, 0 a 0.5,0.5 0 1,0 1,0 a 0.5,0.5 0 1,0 -1,0  M361 317 Q 304.77 317, 248.53 302 T 136.05 287 M 124.05 287 m -1, 0 a 1,1 0 1,0 2,0 a 1,1 0 1,0 -2,0 M 124.05 287 m -0.5, 0 a 0.5,0.5 0 1,0 1,0 a 0.5,0.5 0 1,0 -1,0  M124.05 287 L124.05 287 136.05 287 M130.05 293 L130.05 293 130.05 281" id="h883084757" class="r"></path><path d="M 373 342 m -1, 0 a 1,1 0 1,0 2,0 a 1,1 0 1,0 -2,0 M 373 342 m -0.5, 0 a 0.5,0.5 0 1,0 1,0 a 0.5,0.5 0 1,0 -1,0  M373 342 L373 342 361 342 M 373 348 m -1, 0 a 1,1 0 1,0 2,0 a 1,1 0 1,0 -2,0 M 373 348 m -0.5, 0 a 0.5,0.5 0 1,0 1,0 a 0.5,0.5 0 1,0 -1,0  M373 348 L373 348 366 342 373 336 M 373 336 m -1, 0 a 1,1 0 1,0 2,0 a 1,1 0 1,0 -2,0 M 373 336 m -0.5, 0 a 0.5,0.5 0 1,0 1,0 a 0.5,0.5 0 1,0 -1,0  M361 342 Q 315.93 342, 270.85 214.5 T 180.7 87 M 168.7 87 m -1, 0 a 1,1 0 1,0 2,0 a 1,1 0 1,0 -2,0 M 168.7 87 m -0.5, 0 a 0.5,0.5 0 1,0 1,0 a 0.5,0.5 0 1,0 -1,0  M168.7 87 L168.7 87 180.7 87 M174.7 93 L174.7 93 174.7 81" id="h1597672871" class="r"></path><path d="M 124.05 412 m -1, 0 a 1,1 0 1,0 2,0 a 1,1 0 1,0 -2,0 M 124.05 412 m -0.5, 0 a 0.5,0.5 0 1,0 1,0 a 0.5,0.5 0 1,0 -1,0  M124.05 412 L124.05 412 136.05 412 M 124.05 418 m -1, 0 a 1,1 0 1,0 2,0 a 1,1 0 1,0 -2,0 M 124.05 418 m -0.5, 0 a 0.5,0.5 0 1,0 1,0 a 0.5,0.5 0 1,0 -1,0  M124.05 418 L124.05 418 131.05 412 124.05 406 M 124.05 406 m -1, 0 a 1,1 0 1,0 2,0 a 1,1 0 1,0 -2,0 M 124.05 406 m -0.5, 0 a 0.5,0.5 0 1,0 1,0 a 0.5,0.5 0 1,0 -1,0  M136.05 412 Q 217.2 412, 298.35 429.43 T 460.64 446.86 M 472.64 446.86 m -1, 0 a 1,1 0 1,0 2,0 a 1,1 0 1,0 -2,0 M 472.64 446.86 m -0.5, 0 a 0.5,0.5 0 1,0 1,0 a 0.5,0.5 0 1,0 -1,0  M472.64 446.86 L472.64 446.86 460.64 446.86 M466.64 452.86 L466.64 452.86 466.64 440.86" id="h2372472583" class="r"></path><path d="M 124.05 437 m -1, 0 a 1,1 0 1,0 2,0 a 1,1 0 1,0 -2,0 M 124.05 437 m -0.5, 0 a 0.5,0.5 0 1,0 1,0 a 0.5,0.5 0 1,0 -1,0  M124.05 437 L124.05 437 136.05 437 M 124.05 443 m -1, 0 a 1,1 0 1,0 2,0 a 1,1 0 1,0 -2,0 M 124.05 443 m -0.5, 0 a 0.5,0.5 0 1,0 1,0 a 0.5,0.5 0 1,0 -1,0  M124.05 443 L124.05 443 131.05 437 124.05 431 M 124.05 431 m -1, 0 a 1,1 0 1,0 2,0 a 1,1 0 1,0 -2,0 M 124.05 431 m -0.5, 0 a 0.5,0.5 0 1,0 1,0 a 0.5,0.5 0 1,0 -1,0  M136.05 437 C 466.00199999999995 437, 361.02 408, 311.02 408 M 299.02 408 m -1, 0 a 1,1 0 1,0 2,0 a 1,1 0 1,0 -2,0 M 299.02 408 m -0.5, 0 a 0.5,0.5 0 1,0 1,0 a 0.5,0.5 0 1,0 -1,0  M299.02 408 L299.02 408 311.02 408 M305.02 414 L305.02 414 305.02 402" id="h3793961433" class="r"></path><path d="M 124.05 462 m -1, 0 a 1,1 0 1,0 2,0 a 1,1 0 1,0 -2,0 M 124.05 462 m -0.5, 0 a 0.5,0.5 0 1,0 1,0 a 0.5,0.5 0 1,0 -1,0  M124.05 462 L124.05 462 136.05 462 M 124.05 468 m -1, 0 a 1,1 0 1,0 2,0 a 1,1 0 1,0 -2,0 M 124.05 468 m -0.5, 0 a 0.5,0.5 0 1,0 1,0 a 0.5,0.5 0 1,0 -1,0  M124.05 468 L124.05 468 131.05 462 124.05 456 M 124.05 456 m -1, 0 a 1,1 0 1,0 2,0 a 1,1 0 1,0 -2,0 M 124.05 456 m -0.5, 0 a 0.5,0.5 0 1,0 1,0 a 0.5,0.5 0 1,0 -1,0  M136.05 462 C 466.00199999999995 462, 361.02 408, 311.02 408 M 299.02 408 m -1, 0 a 1,1 0 1,0 2,0 a 1,1 0 1,0 -2,0 M 299.02 408 m -0.5, 0 a 0.5,0.5 0 1,0 1,0 a 0.5,0.5 0 1,0 -1,0  M299.02 408 L299.02 408 311.02 408 M305.02 414 L305.02 414 305.02 402" id="h3714508758" class="r"></path><path d="M 124.05 487 m -1, 0 a 1,1 0 1,0 2,0 a 1,1 0 1,0 -2,0 M 124.05 487 m -0.5, 0 a 0.5,0.5 0 1,0 1,0 a 0.5,0.5 0 1,0 -1,0  M124.05 487 L124.05 487 136.05 487 M 124.05 493 m -1, 0 a 1,1 0 1,0 2,0 a 1,1 0 1,0 -2,0 M 124.05 493 m -0.5, 0 a 0.5,0.5 0 1,0 1,0 a 0.5,0.5 0 1,0 -1,0  M124.05 493 L124.05 493 131.05 487 124.05 481 M 124.05 481 m -1, 0 a 1,1 0 1,0 2,0 a 1,1 0 1,0 -2,0 M 124.05 481 m -0.5, 0 a 0.5,0.5 0 1,0 1,0 a 0.5,0.5 0 1,0 -1,0  M136.05 487 C 466.00199999999995 487, 361.02 408, 311.02 408 M 299.02 408 m -1, 0 a 1,1 0 1,0 2,0 a 1,1 0 1,0 -2,0 M 299.02 408 m -0.5, 0 a 0.5,0.5 0 1,0 1,0 a 0.5,0.5 0 1,0 -1,0  M299.02 408 L299.02 408 311.02 408 M305.02 414 L305.02 414 305.02 402" id="h2034947655" class="r"></path><path d="M 163.33 582 m -1, 0 a 1,1 0 1,0 2,0 a 1,1 0 1,0 -2,0 M 163.33 582 m -0.5, 0 a 0.5,0.5 0 1,0 1,0 a 0.5,0.5 0 1,0 -1,0  M163.33 582 L163.33 582 151.33 582 M 163.33 588 m -1, 0 a 1,1 0 1,0 2,0 a 1,1 0 1,0 -2,0 M 163.33 588 m -0.5, 0 a 0.5,0.5 0 1,0 1,0 a 0.5,0.5 0 1,0 -1,0  M163.33 588 L163.33 588 156.33 582 163.33 576 M 163.33 576 m -1, 0 a 1,1 0 1,0 2,0 a 1,1 0 1,0 -2,0 M 163.33 576 m -0.5, 0 a 0.5,0.5 0 1,0 1,0 a 0.5,0.5 0 1,0 -1,0  M151.33 582 C -207.99800000000002 582, -92 287, -42 287 M -30 287 m -1, 0 a 1,1 0 1,0 2,0 a 1,1 0 1,0 -2,0 M -30 287 m -0.5, 0 a 0.5,0.5 0 1,0 1,0 a 0.5,0.5 0 1,0 -1,0  M-30 287 L-30 287 -42 287 M-36 293 L-36 293 -36 281" id="h3228109841" class="r"></path><path d="M 163.33 607 m -1, 0 a 1,1 0 1,0 2,0 a 1,1 0 1,0 -2,0 M 163.33 607 m -0.5, 0 a 0.5,0.5 0 1,0 1,0 a 0.5,0.5 0 1,0 -1,0  M163.33 607 L163.33 607 151.33 607 M 163.33 613 m -1, 0 a 1,1 0 1,0 2,0 a 1,1 0 1,0 -2,0 M 163.33 613 m -0.5, 0 a 0.5,0.5 0 1,0 1,0 a 0.5,0.5 0 1,0 -1,0  M163.33 613 L163.33 613 156.33 607 163.33 601 M 163.33 601 m -1, 0 a 1,1 0 1,0 2,0 a 1,1 0 1,0 -2,0 M 163.33 601 m -0.5, 0 a 0.5,0.5 0 1,0 1,0 a 0.5,0.5 0 1,0 -1,0  M151.33 607 C -111.99800000000002 607, -32 87, 18 87 M 30 87 m -1, 0 a 1,1 0 1,0 2,0 a 1,1 0 1,0 -2,0 M 30 87 m -0.5, 0 a 0.5,0.5 0 1,0 1,0 a 0.5,0.5 0 1,0 -1,0  M30 87 L30 87 18 87 M24 93 L24 93 24 81" id="h3857304036" class="r"></path></g><g class="hrs"></g><g class="ts"><svg width="138.7" height="125" x="30" y="30" id="h3010508784" class="t"><rect height="40" width="138.7" class="th"></rect><text x="13" y="25" class="tht">Teams</text><rect height="85" width="138.7" class="t-bg"></rect><text x="13" y="61" class="tf pk">id<tspan x="125.69999999999999" class="ty">serial</tspan></text><path d="M7,14A2,2 0 0,1 5,12A2,2 0 0,1 7,10A2,2 0 0,1 9,12A2,2 0 0,1 7,14M12.65,10C11.83,7.67 9.61,6 7, 6A6, 6 0 0, 0 1, 12A6, 6 0 0, 0 7, 18C9.61, 18 11.83, 16.33 12.65, 14H17V18H21V14H23V10H12.65Z" class="i pk" transform="translate(77.02421874999999, 48) scale(0.65)"></path><text x="13" y="86" class="tf">name<tspan x="125.69999999999999" class="ty">text</tspan></text><text x="13" y="111" class="tf">ranking<tspan x="125.69999999999999" class="ty">INTEGER</tspan></text></svg><svg width="142.03" height="125" x="450" y="33" id="h4103274130" class="t"><rect height="40" width="142.03" class="th"></rect><text x="13" y="25" class="tht">Players</text><rect height="85" width="142.03" class="t-bg"></rect><text x="13" y="61" class="tf pk">id<tspan x="129.03" class="ty">serial</tspan></text><path d="M7,14A2,2 0 0,1 5,12A2,2 0 0,1 7,10A2,2 0 0,1 9,12A2,2 0 0,1 7,14M12.65,10C11.83,7.67 9.61,6 7, 6A6, 6 0 0, 0 1, 12A6, 6 0 0, 0 7, 18C9.61, 18 11.83, 16.33 12.65, 14H17V18H21V14H23V10H12.65Z" class="i pk" transform="translate(80.35421875, 48) scale(0.65)"></path><text x="13" y="86" class="tf">name<tspan x="129.03" class="ty">text</tspan></text><text x="13" y="111" class="tf">team_id<tspan x="129.03" class="ty">INTEGER</tspan></text></svg><svg width="148.04" height="150" x="232.78" y="25.56" id="h1247361070" class="t"><rect height="40" width="148.04" class="th"></rect><text x="13" y="25" class="tht">Lineups</text><rect height="110" width="148.04" class="t-bg"></rect><text x="13" y="61" class="tf pk">id<tspan x="135.04" class="ty">serial</tspan></text><path d="M7,14A2,2 0 0,1 5,12A2,2 0 0,1 7,10A2,2 0 0,1 9,12A2,2 0 0,1 7,14M12.65,10C11.83,7.67 9.61,6 7, 6A6, 6 0 0, 0 1, 12A6, 6 0 0, 0 7, 18C9.61, 18 11.83, 16.33 12.65, 14H17V18H21V14H23V10H12.65Z" class="i pk" transform="translate(86.36421874999999, 48) scale(0.65)"></path><text x="13" y="86" class="tf fk">player_id<tspan x="135.04" class="ty">INTEGER</tspan></text><text x="13" y="111" class="tf fk">match_id<tspan x="135.04" class="ty">INTEGER</tspan></text><text x="13" y="136" class="tf fk">team_id<tspan x="135.04" class="ty">INTEGER</tspan></text></svg><svg width="148.04" height="150" x="373" y="210" id="h2207534861" class="t"><rect height="40" width="148.04" class="th"></rect><text x="13" y="25" class="tht">Goals</text><rect height="110" width="148.04" class="t-bg"></rect><text x="13" y="61" class="tf pk">id<tspan x="135.04" class="ty">serial</tspan></text><path d="M7,14A2,2 0 0,1 5,12A2,2 0 0,1 7,10A2,2 0 0,1 9,12A2,2 0 0,1 7,14M12.65,10C11.83,7.67 9.61,6 7, 6A6, 6 0 0, 0 1, 12A6, 6 0 0, 0 7, 18C9.61, 18 11.83, 16.33 12.65, 14H17V18H21V14H23V10H12.65Z" class="i pk" transform="translate(86.36421874999999, 48) scale(0.65)"></path><text x="13" y="86" class="tf fk">player_id<tspan x="135.04" class="ty">INTEGER</tspan></text><text x="13" y="111" class="tf fk">match_id<tspan x="135.04" class="ty">INTEGER</tspan></text><text x="13" y="136" class="tf fk">team_id<tspan x="135.04" class="ty">INTEGER</tspan></text></svg><svg width="154.05" height="275" x="-30" y="230" id="h3829905542" class="t"><rect height="40" width="154.05" class="th"></rect><text x="13" y="25" class="tht">Matches</text><rect height="235" width="154.05" class="t-bg"></rect><text x="13" y="61" class="tf pk">id<tspan x="141.05" class="ty">serial</tspan></text><path d="M7,14A2,2 0 0,1 5,12A2,2 0 0,1 7,10A2,2 0 0,1 9,12A2,2 0 0,1 7,14M12.65,10C11.83,7.67 9.61,6 7, 6A6, 6 0 0, 0 1, 12A6, 6 0 0, 0 7, 18C9.61, 18 11.83, 16.33 12.65, 14H17V18H21V14H23V10H12.65Z" class="i pk" transform="translate(92.37421875000001, 48) scale(0.65)"></path><text x="13" y="86" class="tf">team1_id<tspan x="141.05" class="ty">INTEGER</tspan></text><text x="13" y="111" class="tf">team2_id<tspan x="141.05" class="ty">INTEGER</tspan></text><text x="13" y="136" class="tf">date<tspan x="141.05" class="ty">date</tspan></text><text x="13" y="161" class="tf">location<tspan x="141.05" class="ty">text</tspan></text><text x="13" y="186" class="tf fk">season_id<tspan x="141.05" class="ty">INTEGER</tspan></text><text x="13" y="211" class="tf fk">ref1_id<tspan x="141.05" class="ty">INTEGER</tspan></text><text x="13" y="236" class="tf fk">ref2_id<tspan x="141.05" class="ty">INTEGER</tspan></text><text x="13" y="261" class="tf fk">ref3_id<tspan x="141.05" class="ty">INTEGER</tspan></text></svg><svg width="104.02" height="100" x="195" y="351" id="h332749422" class="t"><rect height="40" width="104.02" class="th"></rect><text x="13" y="25" class="tht">Referees</text><rect height="60" width="104.02" class="t-bg"></rect><text x="13" y="61" class="tf pk">id<tspan x="91.02" class="ty">serial</tspan></text><path d="M7,14A2,2 0 0,1 5,12A2,2 0 0,1 7,10A2,2 0 0,1 9,12A2,2 0 0,1 7,14M12.65,10C11.83,7.67 9.61,6 7, 6A6, 6 0 0, 0 1, 12A6, 6 0 0, 0 7, 18C9.61, 18 11.83, 16.33 12.65, 14H17V18H21V14H23V10H12.65Z" class="i pk" transform="translate(42.344218749999996, 48) scale(0.65)"></path><text x="13" y="86" class="tf">name<tspan x="91.02" class="ty">text</tspan></text></svg><svg width="122.72" height="125" x="472.64" y="389.86" id="h3133071897" class="t"><rect height="40" width="122.72" class="th"></rect><text x="13" y="25" class="tht">Season</text><rect height="85" width="122.72" class="t-bg"></rect><text x="13" y="61" class="tf pk">id<tspan x="109.72" class="ty">serial</tspan></text><path d="M7,14A2,2 0 0,1 5,12A2,2 0 0,1 7,10A2,2 0 0,1 9,12A2,2 0 0,1 7,14M12.65,10C11.83,7.67 9.61,6 7, 6A6, 6 0 0, 0 1, 12A6, 6 0 0, 0 7, 18C9.61, 18 11.83, 16.33 12.65, 14H17V18H21V14H23V10H12.65Z" class="i pk" transform="translate(61.04421875, 48) scale(0.65)"></path><text x="13" y="86" class="tf">start_date<tspan x="109.72" class="ty">date</tspan></text><text x="13" y="111" class="tf">end_date<tspan x="109.72" class="ty">date</tspan></text></svg><svg width="161.37" height="150" x="163.33" y="500" id="h1488401382" class="t"><rect height="40" width="161.37" class="th"></rect><text x="13" y="25" class="tht">Results</text><rect height="110" width="161.37" class="t-bg"></rect><text x="13" y="61" class="tf pk">id<tspan x="148.37" class="ty">serial</tspan></text><path d="M7,14A2,2 0 0,1 5,12A2,2 0 0,1 7,10A2,2 0 0,1 9,12A2,2 0 0,1 7,14M12.65,10C11.83,7.67 9.61,6 7, 6A6, 6 0 0, 0 1, 12A6, 6 0 0, 0 7, 18C9.61, 18 11.83, 16.33 12.65, 14H17V18H21V14H23V10H12.65Z" class="i pk" transform="translate(99.69421875, 48) scale(0.65)"></path><text x="13" y="86" class="tf fk">match_id<tspan x="148.37" class="ty">INTEGER</tspan></text><text x="13" y="111" class="tf fk">team_id<tspan x="148.37" class="ty">INTEGER</tspan></text><text x="13" y="136" class="tf">result(win/loss/tie)<tspan x="148.37" class="ty">text</tspan></text></svg></g></g><text class="qdbd-link" x="10" y="20">www.quickdatabasediagrams.com</text></svg>